<svg xmlns="http://www.w3.org/2000/svg" width="24" height="23" viewBox="0 0 24 23">
    <path fill="#919EAB" fill-rule="evenodd" d="M15 2c0 .536-.06.688 0 1-.304-.063-.451 0-1 0H1c-.549 0-.696-.063-1 0 .06-.312 0-.464 0-1V1C0 .464.06.312 0 0c.304.063.451 0 1 0h13c.549 0 .696.063 1 0-.06.312 0 .464 0 1v1zM1 10c-.536 0-.688-.063-1 0 .063-.312 0-.464 0-1V8c0-.536.063-.688 0-1 .312.063.464 0 1 0h22c.536 0 .688.063 1 0-.063.312 0 .464 0 1v1c0 .536-.063.688 0 1-.312-.063-.464 0-1 0H1zm0 13c-.536 0-.688-.063-1 0 .063-.312 0-.464 0-1v-1c0-.536.063-.688 0-1 .312.063.464 0 1 0h22c.536 0 .688.063 1 0-.063.312 0 .464 0 1v1c0 .536-.063.688 0 1-.312-.063-.464 0-1 0H1zm13-10c.549 0 .696.063 1 0-.06.312 0 .464 0 1v1c0 .536-.06.688 0 1-.304-.063-.451 0-1 0H1c-.549 0-.696-.063-1 0 .06-.312 0-.464 0-1v-1c0-.536.06-.688 0-1 .304.063.451 0 1 0h13z"/>
</svg>
