<svg xmlns="http://www.w3.org/2000/svg" xmlns:xlink="http://www.w3.org/1999/xlink" width="36" height="36" viewBox="0 0 36 36">
    <defs>
        <circle id="a" cx="18" cy="18" r="18"/>
        <path id="c" d="M10 0C4.486 0 0 4.486 0 10s4.486 10 10 10 10-4.486 10-10S15.514 0 10 0m0 18c-4.411 0-8-3.589-8-8s3.589-8 8-8 8 3.589 8 8-3.589 8-8 8m0-4.1a1.1 1.1 0 1 0 .001 2.201A1.1 1.1 0 0 0 10 13.9M10 4C8.625 4 7.425 5.161 7.293 5.293A1.001 1.001 0 0 0 8.704 6.71C8.995 6.424 9.608 6 10 6a1.001 1.001 0 0 1 .591 1.808C9.58 8.548 9 9.616 9 10.737V11a1 1 0 1 0 2 0v-.263c0-.653.484-1.105.773-1.317A3.013 3.013 0 0 0 13 7c0-1.654-1.346-3-3-3"/>
    </defs>
    <g fill="none" fill-rule="evenodd">
        <mask id="b" fill="#fff">
            <use xlink:href="#a"/>
        </mask>
        <use fill="#FFF" xlink:href="#a"/>
        <g mask="url(#b)">
            <g transform="translate(8 8)">
                <mask id="d" fill="#fff">
                    <use xlink:href="#c"/>
                </mask>
                <use fill="#31373D" xlink:href="#c"/>
            </g>
        </g>
    </g>
</svg>
